# Blender v2.79 (sub 0) OBJ File: 'cube.blend'
# www.blender.org
mtllib cube.mtl
o Cube
v 1.000000 0.391558 -1.000000
v 1.000000 0.391558 1.000000
v -1.000000 0.391558 1.000000
v -1.000000 0.391558 -1.000000
v 1.000000 2.391558 -0.999999
v 0.999999 2.391558 1.000001
v -1.000000 2.391558 1.000000
v -1.000000 2.391558 -1.000000
vt 0.315476 0.684524
vt 0.017857 0.982143
vt 0.017857 0.684524
vt 0.648809 0.648810
vt 0.351190 0.351191
vt 0.648809 0.351191
vt 0.351191 0.315476
vt 0.648809 0.017857
vt 0.648810 0.315476
vt 0.017857 0.017857
vt 0.315476 0.315476
vt 0.017857 0.315476
vt 0.315476 0.648810
vt 0.017857 0.351191
vt 0.315476 0.351191
vt 0.982143 0.017857
vt 0.684524 0.315476
vt 0.684524 0.017857
vt 0.315476 0.982143
vt 0.351191 0.648809
vt 0.351190 0.017857
vt 0.315476 0.017857
vt 0.017857 0.648810
vt 0.982143 0.315476
vn 0.0000 -1.0000 0.0000
vn 0.0000 1.0000 0.0000
vn 1.0000 -0.0000 0.0000
vn 0.0000 -0.0000 1.0000
vn -1.0000 -0.0000 -0.0000
vn 0.0000 0.0000 -1.0000
usemtl cube_mat.001
s off
f 2/1/1 4/2/1 1/3/1
f 8/4/2 6/5/2 5/6/2
f 5/7/3 2/8/3 1/9/3
f 6/10/4 3/11/4 2/12/4
f 3/13/5 8/14/5 4/15/5
f 1/16/6 8/17/6 5/18/6
f 2/1/1 3/19/1 4/2/1
f 8/4/2 7/20/2 6/5/2
f 5/7/3 6/21/3 2/8/3
f 6/10/4 7/22/4 3/11/4
f 3/13/5 7/23/5 8/14/5
f 1/16/6 4/24/6 8/17/6
